<svg id="pdf_2_" data-name="pdf (2)" xmlns="http://www.w3.org/2000/svg" width="24.699" height="27.26" viewBox="0 0 24.699 27.26">
  <path id="Path_151" data-name="Path 151" d="M48.381,4.135,44.613.367A1.245,1.245,0,0,0,43.727,0H27.863A1.254,1.254,0,0,0,26.61,1.253v12.4h-.881a1.682,1.682,0,0,0-1.68,1.68v7.682a1.682,1.682,0,0,0,1.68,1.68H38.959a1.254,1.254,0,0,0,1.253-1.253V17.471a1.254,1.254,0,0,0-1.253-1.253H25.729a.881.881,0,1,1,0-1.762h.881v.454a.4.4,0,1,0,.8,0V1.253A.455.455,0,0,1,27.863.8H43.255V4.667a.827.827,0,0,0,.826.826h3.869V26.007a.455.455,0,0,1-.454.454H27.863a.455.455,0,0,1-.454-.454.4.4,0,1,0-.8,0,1.254,1.254,0,0,0,1.253,1.253H47.5a1.254,1.254,0,0,0,1.253-1.253V5.021A1.244,1.244,0,0,0,48.381,4.135ZM25.729,17.017H38.959a.455.455,0,0,1,.454.454v5.975a.455.455,0,0,1-.454.454H25.729a.882.882,0,0,1-.881-.881V16.767A1.669,1.669,0,0,0,25.729,17.017ZM44.053,4.667V.937l3.758,3.758H44.081A.028.028,0,0,1,44.053,4.667Z" transform="translate(-24.049 0)" fill="#0f0d00"/>
  <path id="Path_152" data-name="Path 152" d="M229.47,349.116a.4.4,0,0,0,.4-.4v-1.328h.865a.4.4,0,0,0,0-.8h-.865v-.864h.974a.4.4,0,1,0,0-.8H229.47a.4.4,0,0,0-.4.4v3.389A.4.4,0,0,0,229.47,349.116Z" transform="translate(-218.155 -326.563)" fill="#0f0d00"/>
  <path id="Path_153" data-name="Path 153" d="M155.523,349.638a.4.4,0,0,0,.281.116h0c.028,0,.7,0,.965-.007a1.856,1.856,0,0,0,1.7-2.049c0-1.23-.7-2.056-1.737-2.056H155.8a.4.4,0,0,0-.4.4v0h0V349.3a.561.561,0,0,0,.125.337Zm1.213-3.2c.692,0,.939.649.939,1.257,0,.853-.461,1.242-.918,1.25-.127,0-.354,0-.554.005,0-.392,0-2.105,0-2.513Z" transform="translate(-148.405 -327.239)" fill="#0f0d00"/>
  <path id="Path_154" data-name="Path 154" d="M88.344,348.905a.4.4,0,0,0,.4-.4V347.42l.551,0a1.363,1.363,0,1,0,0-2.726h-.951a.4.4,0,0,0-.4.4h0v3.414A.4.4,0,0,0,88.344,348.905Zm.951-3.414a.564.564,0,1,1,0,1.128l-.547,0c0-.2,0-.917,0-1.13Z" transform="translate(-84.543 -326.34)" fill="#0f0d00"/>
  <path id="Path_155" data-name="Path 155" d="M183.89,89.37a6.429,6.429,0,0,0-2.526,1.293,1.115,1.115,0,0,0-.22,1.457.953.953,0,0,0,.807.484,1.062,1.062,0,0,0,.379-.074,3.84,3.84,0,0,0,1.549-1.56c.185-.281.372-.593.559-.931l.208-.06a19.916,19.916,0,0,1,3.521-.64,4.884,4.884,0,0,0,1.988,1.314,1.115,1.115,0,0,0,1.4-.809.83.83,0,0,0-.4-1.009,4.124,4.124,0,0,0-2.04-.343c-.2,0-.419.011-.644.025a15.946,15.946,0,0,1-2.2-2.9q.041-.142.078-.28a6.081,6.081,0,0,0,.289-2.3c-.117-.746-.6-.852-.8-.862a1.066,1.066,0,0,0-1.236.926,3.82,3.82,0,0,0,.49,2c.094.2.2.405.315.615q-.065.207-.14.432a22.941,22.941,0,0,1-1.381,3.224ZM181.972,91.8c-.028,0-.076.01-.159-.117a.246.246,0,0,1-.013-.287,3.048,3.048,0,0,1,1.469-.957C182.655,91.395,182.2,91.775,181.972,91.8Zm8.832-2.236a.145.145,0,0,1-.007.027c-.1.3-.234.333-.462.28a2.888,2.888,0,0,1-1.026-.585C190.377,89.3,190.75,89.49,190.8,89.567ZM185.4,83.208c.016-.114.035-.243.338-.243l.061,0c.091.111.138.6-.073,1.579A2.852,2.852,0,0,1,185.4,83.208Zm.556,3.408c.175.269.364.541.564.813.287.389.61.794.953,1.18-.4.048-.8.109-1.214.184-.277.05-.759.145-1.324.286q.188-.389.369-.806C185.542,87.722,185.763,87.16,185.953,86.616Z" transform="translate(-172.608 -77.792)" fill="#0f0d00"/>
</svg>
