<svg xmlns="http://www.w3.org/2000/svg" width="32.521" height="32.521" viewBox="0 0 32.521 32.521">
  <g id="Group_5096" data-name="Group 5096" transform="translate(-22.021 8)">
    <path id="Union_10" data-name="Union 10" d="M12.488,30.343H8.131L5.953,26.57,2.179,24.391V20.034L0,16.26l2.179-3.773V8.131L5.952,5.953,8.131,2.179h4.356L16.26,0l3.774,2.179h4.357l2.178,3.773,3.774,2.179v4.356l2.179,3.774-2.179,3.773V24.39L26.57,26.569l-2.179,3.774H20.034L16.26,32.521Z" transform="translate(22.021 -8)" fill="#ffd800"/>
    <g id="Group_5095" data-name="Group 5095" transform="translate(-582.341 -332.115)">
      <ellipse id="Ellipse_529" data-name="Ellipse 529" cx="1.907" cy="1.908" rx="1.907" ry="1.908" transform="translate(618.862 345.562)" fill="#232323"/>
      <path id="Union_42" data-name="Union 42" d="M1.182,11.871l-1.1-9.3C.046,2.359.023,2.166.01,2.007L0,1.919H0c0-.054,0-.1,0-.146a1.773,1.773,0,0,1,3.547,0c0,.043,0,.092,0,.146h0l-.011.089c-.012.159-.035.351-.067.567l-1.1,9.3Z" transform="translate(618.862 332.378)" fill="#232323"/>
    </g>
  </g>
</svg>
